/* XPM */
static char *result[] = {
/* columns rows colors chars-per-pixel */
"50 64 240 2 ",
"   c #362419",
".  c #36291F",
"X  c #3A271B",
"o  c #3C2C21",
"O  c #372A20",
"+  c #3D342F",
"@  c #3F3125",
"#  c #3E3731",
"$  c #3F3832",
"%  c #5D230A",
"&  c #5B2406",
"*  c #462616",
"=  c #593117",
"-  c #662402",
";  c #6C2500",
":  c #6A2907",
">  c #742B01",
",  c #7A2E02",
"<  c #702D0C",
"1  c #7C3302",
"2  c #793406",
"3  c #6C3514",
"4  c #673716",
"5  c #743D1A",
"6  c #753B17",
"7  c #66310E",
"8  c #412F23",
"9  c #473428",
"0  c #563826",
"q  c #423A34",
"w  c #4B3D32",
"e  c #453E39",
"r  c #563F30",
"t  c #663F28",
"y  c #7A421D",
"u  c #7E4519",
"i  c #4A433D",
"p  c #48413B",
"a  c #5A4A3E",
"s  c #554538",
"d  c #7E4C22",
"f  c #784425",
"g  c #78543E",
"h  c #6E4E39",
"j  c #444443",
"k  c #4B4946",
"l  c #524A43",
"z  c #5C4D42",
"x  c #564F49",
"c  c #5C534C",
"v  c #595047",
"b  c #595957",
"n  c #4E514F",
"m  c #614E41",
"M  c #635144",
"N  c #63564B",
"B  c #6A5749",
"V  c #735543",
"C  c #765B47",
"Z  c #675D55",
"A  c #6D645C",
"S  c #696159",
"D  c #776759",
"F  c #7B614F",
"G  c #6A6C6B",
"H  c #686764",
"J  c #736C64",
"K  c #786E65",
"L  c #6E706F",
"P  c #7A736C",
"I  c #6F7371",
"U  c #747573",
"Y  c #7B7D7B",
"T  c #7A7975",
"R  c #5F6261",
"E  c #823505",
"W  c #833A03",
"Q  c #843B0A",
"!  c #8B3C09",
"~  c #863A08",
"^  c #913F0C",
"/  c #803E15",
"(  c #8D420B",
")  c #8E4B0B",
"_  c #884208",
"`  c #91450D",
"'  c #914C0D",
"]  c #92500F",
"[  c #8D4C13",
"{  c #884317",
"}  c #944512",
"|  c #954A12",
" . c #9A4C15",
".. c #9C4E1A",
"X. c #964A1B",
"o. c #945314",
"O. c #95551A",
"+. c #9D531A",
"@. c #9C5A1D",
"#. c #995519",
"$. c #895519",
"%. c #A2541D",
"&. c #A05C1F",
"*. c #A04E18",
"=. c #844C24",
"-. c #8C5727",
";. c #9C5C22",
":. c #935C2C",
">. c #9A5726",
",. c #8A5736",
"<. c #94572C",
"1. c #A35621",
"2. c #A35B23",
"3. c #AA5D26",
"4. c #A55D2A",
"5. c #AA5E29",
"6. c #A05E30",
"7. c #9B622C",
"8. c #9A6637",
"9. c #A36126",
"0. c #A4632B",
"q. c #AB632C",
"w. c #A56532",
"e. c #AA6532",
"r. c #AC6935",
"t. c #AC6C3B",
"y. c #A4683A",
"u. c #B26A35",
"i. c #B36E3A",
"p. c #B16731",
"a. c #B4713D",
"s. c #B8713C",
"d. c #B1642E",
"f. c #8E6A4C",
"g. c #8A6347",
"h. c #976B47",
"j. c #866C57",
"k. c #977459",
"l. c #967154",
"z. c #A96E42",
"x. c #AB7245",
"c. c #A6754C",
"v. c #AC734A",
"b. c #A6784A",
"n. c #B47443",
"m. c #B57A4B",
"M. c #BC7D4D",
"N. c #BA7845",
"B. c #A97954",
"V. c #B37B53",
"C. c #B67E56",
"Z. c #B06E41",
"A. c #8C7D6D",
"S. c #847568",
"D. c #987C66",
"F. c #847C73",
"G. c #867D76",
"H. c #A57E63",
"J. c #7D817F",
"K. c #AC8356",
"L. c #BB8154",
"P. c #BC845B",
"I. c #BF885E",
"U. c #B3835A",
"Y. c #8B847C",
"T. c #878179",
"R. c #958678",
"E. c #998571",
"W. c #A88768",
"Q. c #BD8B63",
"!. c #B48C6C",
"~. c #BC8C6A",
"^. c #B88862",
"/. c #BB946C",
"(. c #A58C78",
"). c #B89878",
"_. c #AF9178",
"`. c #C2895D",
"'. c #C48856",
"]. c #C68A56",
"[. c #C18B62",
"{. c #C18F6A",
"}. c #CC9464",
"|. c #C3916C",
" X c #CA966B",
".X c #CC996C",
"XX c #CA9566",
"oX c #C49573",
"OX c #C59975",
"+X c #CB9B73",
"@X c #C49B7C",
"#X c #C89B79",
"$X c #D09B6A",
"%X c #CCA27C",
"&X c #D1A275",
"*X c #D2A57B",
"=X c #D4A97D",
"-X c #7F8382",
";X c #8D8984",
":X c #878785",
">X c #928E89",
",X c #958D84",
"<X c #9B948C",
"1X c #97928A",
"2X c #939593",
"3X c #9A9995",
"4X c #9B9D9B",
"5X c #989996",
"6X c #8D918F",
"7X c #A59686",
"8X c #B69B84",
"9X c #A39C95",
"0X c #A69E96",
"qX c #B9A38A",
"wX c #A4A19D",
"eX c #A9A29B",
"rX c #ABA59A",
"tX c #B8AA97",
"yX c #9DA2A2",
"uX c #A3A4A3",
"iX c #AAACAC",
"pX c #A9A9A5",
"aX c #B6AEA5",
"sX c #B6B8B6",
"dX c #BDB5AA",
"fX c #9FA09F",
"gX c #C59E81",
"hX c #C99F82",
"jX c #CAA283",
"kX c #C3A588",
"lX c #D4AC85",
"zX c #D3AD88",
"xX c #D5B28B",
"cX c #D5B894",
"vX c #C8B193",
"bX c #C8BBA7",
"nX c #C1BDB1",
"mX c #BDBFC1",
"MX c #BDC0C2",
"NX c None",
/* pixels */
"NXNXNXNXNXNXNXNXNXNXNXNXNXNXNXNXNXNXNXNXNXNXxXvXxXNXNXNXNXNXNXNXNXNXNXNXNXNXNXNXNXNXNXNXNXNXNXNXNXNX",
"NXNXNXNXNXNXNXNXNXNXNXNXNXOX/./.^.U.K.B.B.b.c.c.b.b.c.b.B.B.K.U.!./.).kXNXNXNXNXNXNXNXNXNXNXNXNXNXNX",
"NXNXNXNXNXNXNXNXvX/.K.K.8.8.-.d 3 7 % % % & % % % % % % % % 7 % % 7 y d :.h.b.K.K.NXNXNXNXNXNXNXNXNX",
"NXNXNXNXNXNX/.K.8.7.$.d d y 3 3 3 4 6 6 5 y 5 y 5 y y 5 5 6 3 3 6 6 4 5 y y u -.:.7.8.NXNXNXNXNXNXNX",
"NXNXNXNXNX).:.$.$.-.:.8.8.8.z.z.x.x.x.x.v.v.x.b.v.v.x.v.v.v.x.v.x.x.z.y.8.8.8.7.:.-.$.$.NXNXNXNXNXNX",
"NXNXNXNXNX,XW.8.t.V.L.P.P.I.Q.^.I.`.Q.Q.`.[.`.I.[.[.[.[.[.[.[.I.I.I.Q.I.I.U.U.L.V.x.7.l.pXNXNXNXNXNX",
"NXNXNXNXNXY Y R.)./.[.P.U.L.C.L.L.P.P.P.I.I.I.I.`.Q.I.Q.`.I.[.Q.I.I.^.I.P.L.U.^._.8X9XiXsXNXNXNXNXNX",
"NXNXNXNXT.U L J.2X9XtXqX).!.^.V.B.c.x.c.x.z.z.b.x.x.x.x.x.x.x.x.c.c.c.B.H.(.(.1X2X4XyXiXsXmXNXNXNXNX",
"NXNXNXNXY L U ;X5X4XpXiXpXpXaXtXqXqX_.)._._.U.W.E.K.K.E.E.E.E.R.R.Y.;XT.J.J.J.-X-X4XyXiXsXmXNXNXNXNX",
"NXNXNXNXY L Y 2X5XyXyXpXyXyXyX4X2X6X:XY.T.J.J.P P J G I S G H G H R R H G I J.J.5XyXyXiXsXmXNXNXNXNX",
"NXNXNX>XU L :X2X5XyXpXpXyXyX4X2X6X-XU H b n k j e j j j j k n n b R R G L I J.-X6X4XiXiXsXnXbXNXNXNX",
"NXNXNX8XD.S.>X2X5XuXiXpXyXyXyX6X:X-XI H c k j j j j j j k n b b b R R G I U J.Y.2XyXyXwX8XjXzXNXNXNX",
"NXNXNXzX|.~.8X8X7X9XwX9X5X4X4X6X:XJ.L S n k j j j j j k n n b b R R H G I U J.T.E.W.!.~.OXjXxXNXNXNX",
"NXNXNXlXoXoXgXhXgX@X).B.h.l.k.j.j.D S v i j $ q $ e j j i a n a c N C C ,.h.8.x.K.Q.~.Q.OX=XxXNXNXNX",
"NXNXcX#X+XOXhXhXgXgXOXB.t.r.w.7.7.7.7.-.-.d d d d d d d d d -.7.7.7.0.y.y.t.t.x.m.I.Q.~.|.%XzXcXNXNX",
"NXNXxX*X+XgXhXhXhX@X/.b.t.t.r.w.0.9.7.7.;.;.;.;.;.O.;.;.;.@.7.9.0.7.0.w.t.a.b.t.m.L.Q.~.~.%XzXcXNXNX",
"NXNXzX+X+XOXkXhXgXgX^.v.t.t.w.0.0.0.9.9.O.@.@.@.@.O.O.@.;.;.;.7.0.0.0.w.r.a.x.t.N.C.[.|.{.#XlXcXNXNX",
"NXNXzX XOX@XjXhXgX).C.v.i.e.0.0.0.0.&.7.O.O.@.O.@.#.O.O.;.$.@.9.9.9.9.0.w.i.n.t.m.C.[.{.{.+XhXxXNXNX",
"NXNXlX+X+XgXjXhXgXOXC.t.t.e.0.0.9.9.&.@.o.O.O.O.o.o.o.#.@.O.@.&.9.9.9.0.r.t.n.y.n.M.[.[.{.oX*XzXNXNX",
"NXcX=X XoXgXhXgXgXOXV.t.e.e.0.2.9.&.@.@.$.o.o.o.] o.o.] O.o.@.O.&.9.7.9.w.r.a.t.n.V.[.{.{.|.jXzXcXNX",
"NXcX*X XoXgXhXgX@X~.V.t.e.e.0.2.2.&.;.#.] o.o.] ] ] ] $.o.[ o.@.&.9.7.9.w.e.t.t.Z.m.`.[.{.|.hXlXcXNX",
"NXqXOXoXOXgXhX@X@X~.v.t.r.0.2.2.2.&.+.#.[ ] ] ] ) ] ] ] O.o.o.#.&.&.&.9.q.e.r.t.i.m.C.[.{.{.+XlXbXNX",
"NX7XP W.@XjXhX#XoX~.x.r.e.0.2.;.@.@.#.O.) ] ] ] ] ) ) ) o.o.o.#.+.&.&.2.4.r.i.t.u.m.C.[.{.{.8XbXbXNX",
"NXR.J K ,XtXkXjX@XQ.x.r.q.0.2.&.&.@.#.$.) ] ] ) ) ) ) ) o.[ o.#.@.&.2.;.4.q.r.e.t.N.L.{.gX0XpXiXnXNX",
"NXR.G K Y.1X0XvXvXkXH.V.i.e.2.@.&.#.#.o.) ] ) ) ) ) ) ) ) [ [ o.#.&.@.;.4.0.w.Z.v.!.7X7X5X5XwXiXnXNX",
"NXY.H P Y.;X>X9XpXaXaXkXqX).!.V.x.r.9.;.[ ] ) ) ) ) _ ) ) [ ) O.@.2.w.t.c.B.D.R.F.F.F.-X>X5XfXiXnXNX",
"NXR.H K Y.;X,X3XwXuXfX3X3X<X<X<X7X(.E.E.k.j.f.f.f.h.h.g.f.f.f.j.j.j.K J H Z Z R H J T :X>X5XfXiXnXNX",
"NX%XD.S.;X;X,X9XwXwX3X3X>X;XG.P J S N v k p q p p i i i k i i i k l k l x b Z Z H J P G.>X5X9XwXvXNX",
"NX*XXX~.(.<X1X3XuXwX9X2X2X;XY P J S c l p $ + + + + $ q # q q q p i k k x c N Z H J T :X>X7X_.%XxXNX",
"NX*X.X|.oX@X).7X0X0X3X3X2X;XT.P G S c l p $ # # + # + + # q $ p p s k l x b Z H P T G.(.!.!. X*XxXNX",
"NX=X$X XoX#X#XoX~.H.D.A.Y.;XT.F.G A c l p q + + + # q q q p p i k x c Z Z J K K j.h.x.M.[.Q..X*XxXNX",
"NX*XXX.XoX@X#XoXoXV.d.1.>.<.,.C g B M a p q @ + + + q q p p s s m B B B ,.,.<.6.4.i.N.'.[.I..X=XlXNX",
"NX&X}. XoX#X#XoX{.V.r.3.&.%.+.' | ` _ u 2 7 7 7 7 7 7 7 3 3 3 6 / { | | +.2.3.p.4.i.N.M.[.`. X&XlXNX",
"NX*X}.|.|.#XoXoX{.V.e.3.&.*.+.| | ' ( ( _ _ W _ 1 1 u W _ ( W ) ` }  .+.%.2.q.q.4.i.N.M.`.`. X+XlXNX",
"NX=X}. X{.oXoX|.{.v.w.2.%.%.+. .| ` ) _ 1 _ W W 1 1 W W _ _ W _ ` `  .+.%.1.q.q.5.i.N.M.`.P. X&XzXNX",
"NX*X}. X{.#XoX|.{.V.q.3.%.%. . .` ` ) _ 1 _ W W 1 1 W W W _ W ! ( |  . .%.&.3.q.5.u.s.M.'.P. X*XlXNX",
"NX*X}.}.|.OXoX|.{.V.e.4.%.+. .| ' ` ` _ 1 _ W 1 1 1 1 W W Q 2 ) ( |  . .*.%.1.4.5.u.Z.M.`.C. X&XxXNX",
"NX=X}.}.{.+X|.|.{.V.u.1.%... .| ` ` ` _ W W 1 W 1 u 1 1 2 Q 2 _ ( ` |  .+.&.1.2.5.p.Z.M.'.`. X&XxXNX",
"NX=X}.}.{.oX|.{.~.V.u.1.%. . .| ` ( ( ( W W 1 2 2 1 1 _ E _ 2 Q ( ( `  ...%.2.5.4.p.s.M.'.`..X+XxXNX",
"NXxX}.}.{.|.|.{.{.V.e.1.%. .| } ` ( ( Q W W 1 1 1 2 1 1 W ( 2 W ( ( } | %.%.2.2.5.p.i.M.L.`..X%XcXNX",
"NXqXQ.}.Q.~.|.|.{.V.w.1.*. .} ` ` ) ( W E 1 1 1 2 2 1 1 1 u 2 ~ Q ( ` | ..+.3.1.5.p.i.M.C.'..XkXbXNX",
"NX_.S.U.XX|.|.|.~.V.y.1.*. .} ` ` ! ( Q 1 1 1 1 > 1 > 1 1 1 2 W ! ( } | ..*.1.>.5.p.n.M.M.{.8XaXbXNX",
"NXqXA D (.%X X|.[.C.Z.1... .} ^ ( ! ! Q 1 1 1 1 , , 1 1 1 ~ 2 ~ ! ( ` }  .*.4...5.e.s.M.!.7X9XaXNXNX",
"NXNXP N D 7XqXkX#X^.Z.1...X.` ` ! ! ! W 1 1 1 > > > , 1 1 2 , W ~ ! ` } X.*.1...5.i.C._.,X>X4XaXNXNX",
"NXNXA.N D F.,XeXtXvX).v.4.X.} ! ! ~ ~ ~ E 1 1 > > > , , , Q 2 2 ~ ! ` } } *.1.6.B.A.G.G.G.<X0XbXNXNX",
"NXNXE.Z S A.R.<XeXrXrX7X_.!.B.y.>.} ! ~ 1 , > > ; < > > 1 2 , Q ~ ( } >.y.l.D.K A Z K G.;X<XrXvXNXNX",
"NXNX).D Z S.T.,X9XeXeX,XT.T.A.A.S.k.f.g.,.,.=.=.=./ / =.=.-.=.,.g.f.j.F Z M z z N Z K G.,X7X+XcXNXNX",
"NXNXNX`.f.S.G.R.<XeXeX1XT.T K A N N z a a a z m m m B M m z z a w w q w w s l z B A S.A.H.}.*XNXNXNX",
"NXNXNX&X'.V.D.E.,X0XeX3XY.G.S.J Z M a w 8 o O O . . . O O O o o 8 9 q w r s x c S S.k.c.'.$XlXNXNXNX",
"NXNXNX&X].'.P.^.H.(.7X<X;XG.S.K S N m r q @ O . . . . . O o o o 8 9 w r l M Z g.,.y.N.N.'..XxXNXNXNX",
"NXNXNXNX].'.Q.[.Q.C.B.k.g.j.K D Z Z m w 9 8 o O O O O O 8 o 8 9 w w z m V g =.%.3.s.N.m.}.&XNXNXNXNX",
"NXNXNXNX$XM.P.[.[.C.V.Z.X.^ / 6 f t 0 0 9 8 X     X X 8 8 8 9 0 0 t 5 / ^ ^ } %.3.s.a.M.}.=XNXNXNXNX",
"NXNXNXNX&X'.L.`.I.P.C.Z.>.^ ^ E E E , < : ; - % & & & - - - : > , E ~ ^ } } *.%.3.u.i.'.$XNXNXNXNXNX",
"NXNXNXNXNX].N.L.I.P.C.v.6.^ ! ~ E E , , > > > ; - - ; > > : > , E E ! ^  .} *.1.3.s.Z.'.&XNXNXNXNXNX",
"NXNXNXNXNX}.N.L.P.P.C.v.z.^ ! E E E , , > > ; ; ; ; ; ; > ; > , E E ! ^ } ^ *.%.5.s.N.`.*XNXNXNXNXNX",
"NXNXNXNXNXNXN.N.L.P.V.v.z.^ ! E E E , , > > ; ; - ; ; ; > : > , > E ~ ^ ^ ^ *.1.d.u.M..XNXNXNXNXNXNX",
"NXNXNXNXNXNXf.c.P.P.C.v.y.X.! E E , , > ; > ; ; - ; ; ; > ; > > , E ! ^ ^ X.*.1.p.Z.!.kXNXNXNXNXNXNX",
"NXNXNXNXNXNXNXB j.8X{.V.y.X.! E , E , > ; > ; ; - ; ; ; > ; > > E E ~ ^ ^ ^ *.e.B.(.eXNXNXNXNXNXNXNX",
"NXNXNXNXNXNXNXC m S.7XgX~.Z.X.E , > , > ; ; ; ; - - - ; ; ; , > > E E ^ X.g.k.A.G.,XrXNXNXNXNXNXNXNX",
"NXNXNXNXNXNXNXNXV B A.7XeX0X8XH.c.,.{ 6 < ; ; ; - - ; ; ; < < 6 { ,.g.j.j.j.Z D S.R.NXNXNXNXNXNXNXNX",
"NXNXNXNXNXNXNXNXNXg D R.<X,XA.A.A.D.S.j.V V V V V h V V V V C B B m z s s z M B j.NXNXNXNXNXNXNXNXNX",
"NXNXNXNXNXNXNXNXNXNXNXk.D.,XA.S.D Z M s 9 8 X * 8 8 8 8 o 8 o o 8 8 9 r r r h NXNXNXNXNXNXNXNXNXNXNX",
"NXNXNXNXNXNXNXNXNXNXNXNXNXNXNXj.g.B m a 0 9                 O * 8 = 0 NXNXNXNXNXNXNXNXNXNXNXNXNXNXNX",
"NXNXNXNXNXNXNXNXNXNXNXNXNXNXNXNXNXNXNXNXNXNX* * & * * * NXNXNXNXNXNXNXNXNXNXNXNXNXNXNXNXNXNXNXNXNXNX"
};
