/* XPM */
static char *result[] = {
/* columns rows colors chars-per-pixel */
"32 32 182 2 ",
"   c black",
".  c #010101",
"X  c #020201",
"o  c #030202",
"O  c #050404",
"+  c gray2",
"@  c #060404",
"#  c #070504",
"$  c #060505",
"%  c #070604",
"&  c #070605",
"*  c #060606",
"=  c #080605",
"-  c #090706",
";  c #090806",
":  c #0A0806",
">  c #0A0807",
",  c #0B0907",
"<  c #0C0907",
"1  c #090808",
"2  c #090909",
"3  c #0B0908",
"4  c #0A0909",
"5  c #09090A",
"6  c gray4",
"7  c #0D0A08",
"8  c #0E0B09",
"9  c #0F0B09",
"0  c #0F0B0A",
"q  c #0E0C09",
"w  c #0F0C0A",
"e  c #100D0A",
"r  c #120D0A",
"t  c #13100C",
"y  c #14100D",
"u  c #16100D",
"i  c #17110D",
"p  c #16100E",
"a  c #17120E",
"s  c #18120E",
"d  c #18130F",
"f  c #1A140F",
"g  c #191410",
"h  c #1B1410",
"j  c #1B1511",
"k  c #1C1511",
"l  c #1B1D1D",
"z  c #211A15",
"x  c #231A14",
"c  c #282019",
"v  c #28201A",
"b  c #2D221A",
"n  c #2C221B",
"m  c #2E251E",
"M  c #31241C",
"N  c #31251D",
"B  c #32251D",
"V  c #201F20",
"C  c #222325",
"Z  c #242529",
"A  c #28282B",
"S  c #362B23",
"D  c #372C23",
"F  c #372C24",
"G  c #3A2B22",
"H  c #382D24",
"J  c #3E2F24",
"K  c #3D3127",
"L  c #3E3128",
"P  c #363333",
"I  c #423126",
"U  c #41342A",
"Y  c #44362B",
"T  c #4A372B",
"R  c #4B372B",
"E  c #46382D",
"W  c #483A2F",
"Q  c #4A3B2F",
"!  c #4C382C",
"~  c #4E3A2E",
"^  c #503C2F",
"/  c #513C2F",
"(  c #4A3B30",
")  c #4B3C30",
"_  c #4E3E32",
"`  c #533E30",
"'  c #514134",
"]  c #524135",
"[  c #534235",
"{  c #544336",
"}  c #554437",
"|  c #564537",
" . c #5A4334",
".. c #5C4435",
"X. c #5C4536",
"o. c #574538",
"O. c #584638",
"+. c #594739",
"@. c #59473A",
"#. c #5A483A",
"$. c #5B493B",
"%. c #5D4B3C",
"&. c #5F4C3D",
"*. c #604738",
"=. c #624939",
"-. c #604D3E",
";. c #6B4F3E",
":. c #634F40",
">. c #645040",
",. c #655141",
"<. c #675242",
"1. c #685344",
"2. c #6B5645",
"3. c #6E5847",
"4. c #6F5847",
"5. c #6F5948",
"6. c #725542",
"7. c #735643",
"8. c #745643",
"9. c #745744",
"0. c #755744",
"q. c #735C4A",
"w. c #755E4C",
"e. c #7E5D49",
"r. c #7F5E4A",
"t. c #78604D",
"y. c #7C6350",
"u. c #7B777E",
"i. c #82614C",
"p. c #86634E",
"a. c #89654F",
"s. c #806653",
"d. c #836753",
"f. c #8B6751",
"g. c #826853",
"h. c #836954",
"j. c #8E6952",
"k. c #8F6A54",
"l. c #896E58",
"z. c #8B6F59",
"x. c #946E56",
"c. c #8D715B",
"v. c #8E715B",
"b. c #8F725C",
"n. c #91745E",
"m. c #92755E",
"M. c #987158",
"N. c #9B735A",
"B. c #9C745B",
"V. c #957760",
"C. c #967861",
"Z. c #987A62",
"A. c #9A7B63",
"S. c #9E7E65",
"D. c #9F7F66",
"F. c #A27C63",
"G. c #A47E64",
"H. c #A57F65",
"J. c #A08067",
"K. c #A58066",
"L. c #A78268",
"P. c #A6846B",
"I. c #A6856B",
"U. c #A88369",
"Y. c #A9846A",
"T. c #A9856B",
"R. c #AA866B",
"E. c #AA866C",
"W. c #AB876C",
"Q. c #AB886E",
"!. c #AC886D",
"~. c #AC896E",
"^. c #AD896E",
"/. c #AD8A6F",
"(. c #AE8A6F",
"). c #AE8B70",
"_. c #7F7B83",
"`. c #959CB5",
"'. c #99A1BA",
"]. c #AFA4A4",
"[. c #AFB9D2",
"{. c None",
/* pixels */
"{.{.{.{.{.{.u =   o % % o X O O O O X o O O X   @ 8 {.{.{.{.{.{.",
"{.{.{.{.{.9 ~ r.r p.N.K.] >.).).).).>.] ).).C.y b.O.; {.{.{.{.{.",
"{.{.{.{.{.n N.! ^ N.N.R.H g.).).).).g.H ).).).#.} ).v {.{.{.{.{.",
"{.{.{.{.A 5 5 5 5 5 5 6 6 6 6 6 6 6 6 6 6 P ].P 6 6 6 l {.{.{.{.",
"{.{.{.{.Z `.`.`.`.`.'.[.[.[.[.[.[.[.[.[.[.[.[.[.[.[.[.C {.{.{.{.",
"{.{.{.{.* 5 + + 5 5 2 1 . 4 4 4 4 4 4 . 1 4 4 4 + + 4 $ {.{.{.{.",
"{.{.{.t 8.N.T ..N.N.N.k.i B.B.B.B.B.B.f f.B.B.B.X.T B.9.k {.{.{.",
"{.{.{.: x.N.M 0.N.N.G.Z.z ).).).).).).W S.).).).h.D ).P.& {.{.{.",
"{.{.{.h N.N.s j.N.N.L.n.c ).).).).).).).).).).).D.j ).).d {.{.{.",
"{.{.{.J N.M.7 N.N.N.U.z.m ).).).).).).@.l.).).).).w Q.).L {.{.{.",
"{.{.{.*.N.i.x N.N.N.Y.h.S ).).).).).).E q.).).).).c m.).1.{.{.{.",
"{.{.< 6.N.7.N N.N.N.R.y.K ).).).).).).Q 5.).).).).F g.).s.# {.{.",
"{.{.a e.N.;.G N.N.N.W.w.Y ).).).).).)._ 2.).).).).U t.).c.q {.{.",
"{.{.p a.N.=.I N.N.N.!.3.) ).).).).).).] <.).).).).( 4.).A.0 {.{.",
"{.{.e x.N. .R N.N.N.^.<.] ).).).).).).| :.).).).).{ ,.).I., {.{.",
"{.{.- N.N./ ` N.N.N.(.-.+.).).).).).).#.&.).).).).%.$.).).# {.{.",
"{.{.- N.N./ ` N.N.N.).-.+.).).).).).).+.-.).).).).%.$.).).# {.{.",
"{.{.e x.N. .R N.N.N./.<.] ).).).).).).] <.).).).).{ ,.).I., {.{.",
"{.{.p a.N.=.I N.N.N.~.3.) ).).).).).).) 3.).).).).( 4.).A.0 {.{.",
"{.{.a e.N.;.G N.N.N.!.w.Y ).).).).).).Y w.).).).).U t.).c.q {.{.",
"{.{.< 6.N.7.N N.N.N.W.y.K ).).).).).).K y.).).).).F g.).s.# {.{.",
"{.{.{.*.N.i.x N.N.N.E.h.S ).).).).).).S h.).).).).c m.).1.{.{.{.",
"{.{.{.J N.M.7 N.N.N.T.z.m ).).).).).).m z.).).).).w Q.).L {.{.{.",
"{.{.{.h N.N.s j.N.N.L.n.c ).).).).).).c n.).).).D.j ).).d {.{.{.",
"{.{.{.: x.N.M 0.N.N.H.Z.z ).).).).).).z Z.).).).h.D ).P.& {.{.{.",
"{.{.{.t 8.N.T ..N.N.F.J.g ).).).).).).g J.).).).<.[ ).d.3 {.{.{.",
"{.{.{.{.* 5 + + _.u.2 4 . 4 4 4 4 4 4 . 4 4 4 4 + + 4 $ {.{.{.{.",
"{.{.{.{.Z `.`.`.`.`.'.[.[.[.[.[.[.[.[.[.[.[.[.[.[.[.[.C {.{.{.{.",
"{.{.{.{.A 5 5 5 5 5 5 4 4 4 4 4 4 4 4 4 4 4 4 4 4 4 4 V {.{.{.{.",
"{.{.{.{.{.n N.! ^ N.N.N.B 7.N.N.N.N.7.B N.N.N.^ ! N.b {.{.{.{.{.",
"{.{.{.{.{.9 ~ r.r p.N.H.' :././././.:.' /./.V.y v.o.> {.{.{.{.{.",
"{.{.{.{.{.{.u =   o % % o X O O O O X o O O X   @ 8 {.{.{.{.{.{."
};
