/* XPM */
static char *result[] = {
/* columns rows colors chars-per-pixel */
"32 32 106 2 ",
"   c #020201",
".  c #030201",
"X  c #030202",
"o  c #040302",
"O  c #050303",
"+  c #050403",
"@  c #060402",
"#  c #070503",
"$  c #060404",
"%  c #070504",
"&  c #080505",
"*  c #080604",
"=  c #080705",
"-  c #0A0605",
";  c #080606",
":  c #0A0706",
">  c #0B0706",
",  c #0A0707",
"<  c #0B0806",
"1  c #0C0806",
"2  c #0C0807",
"3  c #0D0807",
"4  c #0D0907",
"5  c #0C0908",
"6  c #0E0A08",
"7  c #0E0A09",
"8  c #150F01",
"9  c #100B09",
"0  c #100B0A",
"q  c #120C09",
"w  c #130E08",
"e  c #120D0B",
"r  c #140E08",
"t  c #140E0C",
"y  c #151101",
"u  c #161009",
"i  c #16100A",
"p  c #17110A",
"a  c #17100E",
"s  c #18110E",
"d  c #19110F",
"f  c #1E1512",
"g  c #261D01",
"h  c #261E01",
"j  c #2A1F01",
"k  c #231815",
"l  c #261916",
"z  c #261B17",
"x  c #281C18",
"c  c #2A1C19",
"v  c #2A1D19",
"b  c #2A2001",
"n  c #2D201B",
"m  c #2E201B",
"M  c #2F211C",
"N  c #34231F",
"B  c #33241E",
"V  c #33251E",
"C  c #34251F",
"Z  c #392621",
"A  c #392622",
"S  c #3C2A23",
"D  c #3C2A24",
"F  c #3D2B25",
"G  c #3F2A25",
"H  c #432C27",
"J  c #402E27",
"K  c #432F28",
"L  c #442D28",
"P  c #453029",
"I  c #453129",
"U  c #48302A",
"Y  c #48302B",
"T  c #48322B",
"R  c #4B352D",
"E  c #4C362D",
"W  c #4E342E",
"Q  c #513930",
"!  c #523931",
"~  c #523A31",
"^  c #573D34",
"/  c #583E34",
"(  c #5D4609",
")  c #644B07",
"_  c #674D07",
"`  c #604909",
"'  c #654C08",
"]  c #6A5105",
"[  c #5B4036",
"{  c #5D4137",
"}  c #5D4238",
"|  c #5E4238",
" . c #5F4338",
".. c #64463C",
"X. c #67483D",
"o. c #68493E",
"O. c #6F4D42",
"+. c #755246",
"@. c #765346",
"#. c #795548",
"$. c #8C6A04",
"%. c #DAA607",
"&. c #DBA707",
"*. c #DCA707",
"=. c #FEC108",
"-. c None",
/* pixels */
"-.-.-.-.-.; $ X & : % X - %   : :   % - X % : & X $ ; -.-.-.-.-.",
"-.-.-.-.-.> @.k G W A n #.o.s W W d X.#.n A W G k @.> -.-.-.-.-.",
"-.-.-.-.-.C #.k G W A n #.o.s W W d X.#.n A W G k #.C -.-.-.-.-.",
"-.-.-.-.2 } #.k G W A n #.o.s W W d X.#.n A W G k #. .1 -.-.-.-.",
"-.-.-.8   u p # 6 q 4 * p r + q q + w p * 4 q 6 # p i   y -.-.-.",
"-.-.b &.*.*.*.*.*.*.*.*.*.*.*.*.*.*.*.*.*.*.*.*.*.*.*.*.&.j -.-.",
"-.-.$.=.=.=.=.=.=.=.=.=.=.=.=.=.=.=.=.=.=.=.=.=.=.=.=.=.=.$.-.-.",
"-.-.g ] _ _ _ ) ( ( ( ' _ _ ` ( ( ` _ _ ' ( ( ( ) _ _ _ ] g -.-.",
"-.-.-.O Q Q Q a c N l f Q I 9 N N 0 P Q f l N c a Q Q Q + -.-.-.",
"-.-.-.t #.#.#.k G W A n #.o.s W W d X.#.n A W G k #.#.#.t -.-.-.",
"-.-.-.x #.#.#.k G W A n #.o.s W W d X.#.n A W G k #.#.#.x -.-.-.",
"-.-.-.J #.#.#.k G W A n #.o.s W W d X.#.n A W G k #.#.#.F -.-.-.",
"-.-.-.@.#.#.#.k G W A n #.o.s W W d X.#.n A W G k #.#.#.E $ -.-.",
"-.-.-.#.#.#.#.k G W A n #.o.s W W d X.#.n A W L M #.#.#.~ = -.-.",
"-.-.-.#.#.#.#.k G W A n #.o.s W W d X.#.n A W W O.#.#.#./ 1 -.-.",
"-.-.7 ..#.#.#.k G W A n #.o.s W W d X.#.n A W W O.#.#.#.| 3 -.-.",
"-.-.6 [ #.#.#.k G W A n #.o.s W W d X.#.n A W U K #.#.#.| 3 -.-.",
"-.-.5 ^ #.#.#.k G W A n #.o.s W W d X.#.n A W G k #.#.#./ < -.-.",
"-.-., ~ #.#.#.k G W A n #.o.s W W d X.#.n A W H v #.#.#.! = -.-.",
"-.-.$ E #.#.#.k G W A n #.o.s W W d X.#.n A W W O.#.#.#.R @ -.-.",
"-.-.-.D #.#.#.k G W A n #.o.s W W d X.#.n A W W O.#.#.#.S -.-.-.",
"-.-.-.z #.#.#.k G W A n #.o.s W W d X.#.n A W Y T #.#.#.z -.-.-.",
"-.-.-.e #.#.#.k G W A n #.o.s W W d X.#.n A W G k #.#.#.e -.-.-.",
"-.-.-.O Q Q Q a c N l f Q I 9 N N 0 P Q f l N c a Q Q Q O -.-.-.",
"-.-.h ] _ _ _ ) ( ( ( ' _ _ ` ( ( ` _ _ ' ( ( ( ) _ _ _ ] h -.-.",
"-.-.$.=.=.=.=.=.=.=.=.=.=.=.=.=.=.=.=.=.=.=.=.=.=.=.=.=.=.$.-.-.",
"-.-.b %.*.*.*.*.*.*.*.*.*.*.*.*.*.*.*.*.*.*.*.*.*.*.*.*.%.j -.-.",
"-.-.-.y   u p # 6 q 4 * p r + q q + w p * 4 q 6 # p u . y -.-.-.",
"-.-.-.-.2 } #.k G W A n #.o.s W W d X.#.m Z W G k #.{ 2 -.-.-.-.",
"-.-.-.-.-.V #.k G W A n #.o.s W W d X.#.m Z W G k #.B -.-.-.-.-.",
"-.-.-.-.-.> @.k G W A n #.o.s W W d X.#.m Z W G k +.> -.-.-.-.-.",
"-.-.-.-.-.-.$ X & : % X - %   : :   % - o % : & X $ -.-.-.-.-.-."
};
